<svg width="61" height="46" viewBox="0 0 61 46" fill="none" xmlns="http://www.w3.org/2000/svg">
<path d="M-1.68188 0.0546875H14.2369V45.0547H-1.68188V0.0546875ZM46.0837 0.0546875H62.0025V45.0547H46.0931L46.0837 0.0546875ZM19.0087 21.8047L17.7619 22.2172L23.5181 27.2797C23.9587 28.5641 23.3681 28.9484 22.9931 29.6234L29.2369 28.8359L29.0869 35.1172L30.39 35.0891L30.0994 28.8453L36.3525 29.5953C35.9681 28.7797 35.6212 28.3484 35.9775 27.0453L41.7244 22.2641L40.7212 21.8891C39.8962 21.2516 41.0775 18.8328 41.2462 17.3047C41.2462 17.3047 37.8994 18.4578 37.6837 17.8484L36.8212 16.2078L33.765 19.5641C33.4369 19.6484 33.2962 19.5172 33.2119 19.2359L34.6181 12.2234L32.3869 13.4797C32.1994 13.5641 32.0119 13.4891 31.8994 13.2734L29.7431 8.96094L27.5306 13.4422C27.3619 13.6016 27.1931 13.6203 27.0619 13.5078L24.915 12.3172L26.1994 19.2641C26.0962 19.5453 25.8525 19.6203 25.5712 19.4703L22.6462 16.1609C22.2712 16.7703 22.0087 17.7641 21.5025 17.9891C20.9962 18.2047 19.2994 17.5672 18.165 17.3328C18.5587 18.7203 19.7587 21.0453 19.0087 21.8047Z" fill="#D52B1E"/>
</svg>
