<svg width="238" height="48" viewBox="0 0 238 48" fill="none" xmlns="http://www.w3.org/2000/svg">
<g clip-path="url(#clip0_52_34)">
<g clip-path="url(#clip1_52_34)">
<g clip-path="url(#clip2_52_34)">
<path d="M14.2805 0V14.2805H35.7195V35.7195H14.2805V14.2805H0V50H50V0H14.2805Z" fill="#FDAD00"/>
</g>
</g>
</g>
<path d="M68.6619 35.5V12.46H83.2219V15.164H71.5099V22.38H81.3019V25.084H71.5099V32.796H83.2219V35.5H68.6619ZM85.0681 35.5V12.46H87.6601L96.3641 30.812L105.02 12.46H107.644V35.484H104.94V18.716L97.1161 35.5H95.5961L87.7721 18.716V35.5H85.0681ZM110.131 35.5V12.46H119.235C119.459 12.46 119.725 12.4707 120.035 12.492C120.344 12.5027 120.643 12.5347 120.931 12.588C122.179 12.78 123.224 13.2067 124.067 13.868C124.92 14.5293 125.56 15.3667 125.987 16.38C126.413 17.3827 126.627 18.4973 126.627 19.724C126.627 21.5053 126.163 23.052 125.235 24.364C124.307 25.6653 122.947 26.4813 121.155 26.812L120.067 26.988H112.979V35.5H110.131ZM123.843 35.5L119.299 26.124L122.115 25.26L127.107 35.5H123.843ZM112.979 24.284H119.139C119.341 24.284 119.571 24.2733 119.827 24.252C120.093 24.2307 120.344 24.1933 120.579 24.14C121.315 23.9693 121.912 23.66 122.371 23.212C122.84 22.7533 123.181 22.22 123.395 21.612C123.608 20.9933 123.715 20.364 123.715 19.724C123.715 19.084 123.608 18.46 123.395 17.852C123.181 17.2333 122.84 16.6947 122.371 16.236C121.912 15.7773 121.315 15.468 120.579 15.308C120.344 15.244 120.093 15.2067 119.827 15.196C119.571 15.1747 119.341 15.164 119.139 15.164H112.979V24.284ZM138.973 35.5V15.164H131.117V12.46H149.677V15.164H141.821V35.5H138.973ZM148.631 35.5V18.22H151.175V22.396L150.759 21.852C150.961 21.3187 151.223 20.828 151.543 20.38C151.873 19.932 152.241 19.564 152.647 19.276C153.095 18.9133 153.601 18.636 154.167 18.444C154.732 18.252 155.308 18.14 155.895 18.108C156.481 18.0653 157.031 18.1027 157.543 18.22V20.892C156.945 20.732 156.289 20.6893 155.575 20.764C154.86 20.8387 154.199 21.1 153.591 21.548C153.036 21.9427 152.604 22.4227 152.295 22.988C151.996 23.5533 151.788 24.1667 151.671 24.828C151.553 25.4787 151.495 26.1453 151.495 26.828V35.5H148.631ZM162.918 35.98C161.627 35.98 160.544 35.7453 159.67 35.276C158.806 34.796 158.15 34.1667 157.702 33.388C157.264 32.6093 157.046 31.756 157.046 30.828C157.046 29.9213 157.216 29.1373 157.558 28.476C157.91 27.804 158.4 27.2493 159.03 26.812C159.659 26.364 160.411 26.012 161.286 25.756C162.107 25.532 163.024 25.34 164.038 25.18C165.062 25.0093 166.096 24.8547 167.142 24.716C168.187 24.5773 169.163 24.444 170.07 24.316L169.046 24.908C169.078 23.372 168.768 22.236 168.118 21.5C167.478 20.764 166.368 20.396 164.79 20.396C163.744 20.396 162.827 20.636 162.038 21.116C161.259 21.5853 160.71 22.3533 160.39 23.42L157.686 22.604C158.102 21.0893 158.907 19.9 160.102 19.036C161.296 18.172 162.87 17.74 164.822 17.74C166.39 17.74 167.734 18.0227 168.854 18.588C169.984 19.1427 170.795 19.9853 171.286 21.116C171.531 21.6493 171.686 22.2307 171.75 22.86C171.814 23.4787 171.846 24.1293 171.846 24.812V35.5H169.318V31.356L169.91 31.74C169.259 33.1373 168.347 34.1933 167.174 34.908C166.011 35.6227 164.592 35.98 162.918 35.98ZM163.35 33.596C164.374 33.596 165.259 33.4147 166.006 33.052C166.763 32.6787 167.371 32.1933 167.83 31.596C168.288 30.988 168.587 30.3267 168.726 29.612C168.886 29.0787 168.971 28.4867 168.982 27.836C169.003 27.1747 169.014 26.668 169.014 26.316L170.006 26.748C169.078 26.876 168.166 26.9987 167.27 27.116C166.374 27.2333 165.526 27.3613 164.726 27.5C163.926 27.628 163.206 27.7827 162.566 27.964C162.096 28.1133 161.654 28.3053 161.238 28.54C160.832 28.7747 160.502 29.0787 160.246 29.452C160 29.8147 159.878 30.268 159.878 30.812C159.878 31.2813 159.995 31.7293 160.23 32.156C160.475 32.5827 160.848 32.9293 161.35 33.196C161.862 33.4627 162.528 33.596 163.35 33.596ZM174.326 15.164V12.22H177.174V15.164H174.326ZM174.326 35.5V18.22H177.174V35.5H174.326ZM192.278 35.5V26.844C192.278 26.0227 192.204 25.2333 192.054 24.476C191.916 23.7187 191.665 23.0413 191.302 22.444C190.95 21.836 190.47 21.356 189.862 21.004C189.265 20.652 188.508 20.476 187.59 20.476C186.876 20.476 186.225 20.5987 185.638 20.844C185.062 21.0787 184.566 21.4413 184.15 21.932C183.734 22.4227 183.409 23.0413 183.174 23.788C182.95 24.524 182.838 25.3933 182.838 26.396L180.966 25.82C180.966 24.1453 181.265 22.7107 181.862 21.516C182.47 20.3107 183.318 19.388 184.406 18.748C185.505 18.0973 186.796 17.772 188.278 17.772C189.398 17.772 190.353 17.948 191.142 18.3C191.932 18.652 192.588 19.1213 193.11 19.708C193.633 20.284 194.044 20.9347 194.342 21.66C194.641 22.3747 194.849 23.1053 194.966 23.852C195.094 24.588 195.158 25.2867 195.158 25.948V35.5H192.278ZM179.958 35.5V18.22H182.518V22.844H182.838V35.5H179.958ZM197.638 15.164V12.22H200.486V15.164H197.638ZM197.638 35.5V18.22H200.486V35.5H197.638ZM215.591 35.5V26.844C215.591 26.0227 215.516 25.2333 215.367 24.476C215.228 23.7187 214.978 23.0413 214.615 22.444C214.263 21.836 213.783 21.356 213.175 21.004C212.578 20.652 211.82 20.476 210.903 20.476C210.188 20.476 209.538 20.5987 208.951 20.844C208.375 21.0787 207.879 21.4413 207.463 21.932C207.047 22.4227 206.722 23.0413 206.487 23.788C206.263 24.524 206.151 25.3933 206.151 26.396L204.279 25.82C204.279 24.1453 204.578 22.7107 205.175 21.516C205.783 20.3107 206.631 19.388 207.719 18.748C208.818 18.0973 210.108 17.772 211.591 17.772C212.711 17.772 213.666 17.948 214.455 18.3C215.244 18.652 215.9 19.1213 216.423 19.708C216.946 20.284 217.356 20.9347 217.655 21.66C217.954 22.3747 218.162 23.1053 218.279 23.852C218.407 24.588 218.471 25.2867 218.471 25.948V35.5H215.591ZM203.271 35.5V18.22H205.831V22.844H206.151V35.5H203.271ZM227.623 43.66C226.716 43.66 225.831 43.5213 224.967 43.244C224.103 42.9667 223.308 42.5453 222.583 41.98C221.868 41.4253 221.271 40.7213 220.791 39.868L223.399 38.492C223.825 39.3347 224.428 39.948 225.207 40.332C225.996 40.716 226.807 40.908 227.639 40.908C228.737 40.908 229.649 40.7053 230.375 40.3C231.1 39.9053 231.633 39.3133 231.975 38.524C232.327 37.7347 232.497 36.7533 232.487 35.58V30.86H232.823V18.22H235.351V35.612C235.351 36.0813 235.335 36.5347 235.303 36.972C235.281 37.4093 235.228 37.8413 235.143 38.268C234.919 39.4947 234.476 40.5027 233.815 41.292C233.153 42.092 232.3 42.684 231.255 43.068C230.209 43.4627 228.999 43.66 227.623 43.66ZM227.415 35.98C225.804 35.98 224.423 35.58 223.271 34.78C222.119 33.9693 221.228 32.876 220.599 31.5C219.98 30.124 219.671 28.572 219.671 26.844C219.671 25.116 219.98 23.564 220.599 22.188C221.228 20.812 222.119 19.7293 223.271 18.94C224.423 18.14 225.799 17.74 227.399 17.74C229.031 17.74 230.401 18.1347 231.511 18.924C232.62 19.7133 233.457 20.796 234.023 22.172C234.599 23.548 234.887 25.1053 234.887 26.844C234.887 28.5613 234.599 30.1133 234.023 31.5C233.457 32.876 232.62 33.9693 231.511 34.78C230.401 35.58 229.036 35.98 227.415 35.98ZM227.767 33.372C228.929 33.372 229.884 33.0947 230.631 32.54C231.377 31.9747 231.927 31.2013 232.279 30.22C232.641 29.228 232.823 28.1027 232.823 26.844C232.823 25.564 232.641 24.4387 232.279 23.468C231.927 22.4867 231.383 21.724 230.647 21.18C229.911 20.6253 228.977 20.348 227.847 20.348C226.673 20.348 225.703 20.636 224.935 21.212C224.177 21.788 223.612 22.5667 223.239 23.548C222.876 24.5293 222.695 25.628 222.695 26.844C222.695 28.0707 222.881 29.18 223.255 30.172C223.628 31.1533 224.188 31.932 224.935 32.508C225.692 33.084 226.636 33.372 227.767 33.372Z" fill="#222829"/>
<defs>
<clipPath id="clip0_52_34">
<rect width="48" height="48" fill="white"/>
</clipPath>
<clipPath id="clip1_52_34">
<rect width="50" height="50" fill="white"/>
</clipPath>
<clipPath id="clip2_52_34">
<rect width="50" height="50" fill="white"/>
</clipPath>
</defs>
</svg>
